<svg width="42" height="42" viewBox="0 0 42 42" fill="none" xmlns="http://www.w3.org/2000/svg">
<g id="&#240;&#159;&#166;&#134; icon &#34;brand twitter&#34;">
<path id="Vector" d="M38.5 7.01749C36.75 7.87499 35.035 8.22324 33.25 8.74999C31.2882 6.53624 28.3797 6.41374 25.585 7.46024C22.7902 8.50674 20.9597 11.0652 21 14V15.75C15.3213 15.8952 10.2638 13.3087 7 8.74999C7 8.74999 -0.3185 21.7577 14 28C10.724 30.1822 7.45675 31.654 3.5 31.5C9.289 34.6552 15.5978 35.7402 21.0595 34.1547C27.3245 32.3347 32.473 27.6395 34.4487 20.6062C35.0381 18.4672 35.3308 16.2572 35.3185 14.0385C35.315 13.6027 37.961 9.18749 38.5 7.01574V7.01749Z" stroke="white" stroke-width="2" stroke-linecap="round" stroke-linejoin="round"/>
</g>
</svg>
